<?xml version="1.0" encoding="UTF-8"?><svg width="150px" height="150px" viewBox="0 0 150 150" version="1.1" xmlns="http://www.w3.org/2000/svg" xmlns:xlink="http://www.w3.org/1999/xlink">    <title>BNB</title>    <defs>        <linearGradient x1="50%" y1="6.83577292%" x2="50%" y2="100%" id="linearGradient-1">            <stop stop-color="#1A1A1B" offset="0%"></stop>            <stop stop-color="#333336" offset="100%"></stop>        </linearGradient>    </defs>    <g id="补充需求" stroke="none" stroke-width="1" fill="none" fill-rule="evenodd">        <g id="BNB" transform="translate(-148.000000, -250.000000)" fill="url(#linearGradient-1)" fill-rule="nonzero">            <g id="弹窗" transform="translate(18.000000, 158.000000)">                <g id="编组-6" transform="translate(20.000000, 92.000000)">                    <g id="BNB" transform="translate(110.000000, 0.000000)">                        <path d="M35,75.0775767 L17.5840413,92.5 L0,75.0775767 L17.5775767,57.5 L35,75.0775767 Z M73.75,33.5756102 L102.907609,62.3511609 L120,45.4951379 L73.75,0 L27.5,45.643977 L44.5923914,62.5 L73.75,33.5756102 Z M132.348722,57.5 L115,75 L132.503219,92.5 L150,75 L132.348722,57.5 Z M73.75,116.42439 L44.5923914,87.5 L27.5,104.362225 L73.75,150 L120,104.356023 L102.907609,87.5 L73.75,116.42439 Z M75,92.5 L92.5,74.9159587 L75,57.5 L57.5,75.071112 L75,92.4935354 L75,92.5 Z" id="形状"></path>                    </g>                </g>            </g>        </g>    </g></svg>